<svg xmlns="http://www.w3.org/2000/svg" xmlns:xlink="http://www.w3.org/1999/xlink" aria-hidden="true" role="img" class="iconify iconify--logos" width="31.88" height="32" preserveAspectRatio="xMidYMid meet" viewBox="0 0 256 257"><defs><linearGradient id="IconifyId1813088fe1fbc01fb466" x1="-.828%" x2="57.636%" y1="7.652%" y2="78.411%"><stop offset="0%" stop-color="#FF00B4"></stop><stop offset="100%" stop-color="#FFFF00"></stop></linearGradient></defs><path fill="url(#IconifyId1813088fe1fbc01fb466)" d="M128.001 0C57.317 0 0 57.307 0 128c0 70.696 57.307 128 128.001 128C198.7 256 256 198.686 256 128.001C256 57.314 198.686 0 128.001 0Zm.001 239.315c-61.958 0-112.315-50.36-112.315-112.315S66.042 14.686 128.001 14.686c61.958 0 112.314 50.36 112.314 112.315S189.96 239.315 128.002 239.315Z"></path><path fill="#FFF" d="M177.963 101.852c-33.458 0-60.625 27.034-60.625 60.348c0 33.315 27.167 60.35 60.625 60.35s60.626-27.035 60.626-60.35c0-33.314-27.168-60.348-60.626-60.348Zm0 102.884c-23.55 0-42.771-19.088-42.771-42.536s19.221-42.536 42.771-42.536c23.55 0 42.771 19.088 42.771 42.536s-19.221 42.536-42.771 42.536Z"></path></svg>